<mxfile host="app.diagrams.net" modified="2023-08-15T14:52:08.641Z" agent="Mozilla/5.0 (X11; Linux x86_64) AppleWebKit/537.36 (KHTML, like Gecko) Chrome/115.0.0.0 Safari/537.36" version="21.6.8" etag="nyvKpE7cg-avtugg4rwG" type="github">
  <diagram name="第 1 页" id="ndRQT61fsRkujyoRJAB0">
    <mxGraphModel>
      <root>
        <mxCell id="0" />
        <mxCell id="1" parent="0" />
      </root>
    </mxGraphModel>
  </diagram>
</mxfile>
